<svg width="100" height="32" viewBox="0 0 100 32" fill="none" xmlns="http://www.w3.org/2000/svg">
<path d="M94.6997 11.7861H99.2541C98.6781 7.37229 95.4406 5.05225 90.9408 5.05225C86.3865 5.05225 83.341 7.45722 83.341 11.5881C83.341 16.2848 87.2644 17.3316 89.3495 17.7561C92.0383 18.2937 94.6722 18.3503 94.6722 20.7268C94.6722 22.3396 93.3553 23.1318 91.4896 23.1318C89.185 23.1318 87.6486 21.9435 87.2644 19.7933H82.7648C83.0391 24.4334 86.3042 26.9232 91.1056 26.9232C95.5503 26.9232 99.1992 24.8295 99.1992 20.3025C99.1992 15.4359 95.0015 14.5589 92.0658 14.1062C90.0628 13.795 87.868 13.512 87.868 11.3334C87.868 9.80556 88.9929 8.87192 90.886 8.87192C93.081 8.87192 94.3978 10.1452 94.6997 11.7861Z" fill="#403F41"/>
<path d="M80.2682 5.75952H75.9606V26.2722H80.2682V5.75952Z" fill="#403F41"/>
<path d="M62.9556 19.114H68.5802C67.7022 21.3211 65.7267 22.3677 63.4494 22.3677C59.4438 22.3677 57.5782 19.1707 57.5782 16.0018C57.5782 12.8046 59.334 9.55086 63.4221 9.55086C65.9188 9.55086 67.7844 10.7392 68.4978 12.8612L73.1345 12.8612C72.339 8.07968 68.2783 5.33521 63.477 5.33521C57.5507 5.33521 53.106 9.49424 53.106 16.0584C53.106 22.7073 57.9347 26.6401 63.4494 26.6401C68.8819 26.6401 73.1345 22.9903 73.1345 17.275V15.6057H62.9556V19.114Z" fill="#403F41"/>
<path d="M43.2563 5.33521C38.3177 5.33521 34.6686 8.53229 34.6961 13.8515H39.1408C39.0859 11.5314 40.5126 9.40943 43.0367 9.40943C45.2317 9.40943 46.5212 10.9939 46.5212 12.8046C46.5212 14.6154 45.2317 15.634 42.8447 16.7375C39.5797 18.237 37.2477 19.199 34.8607 20.0478V26.2723H51.4872V22.0849H40.0729C40.0729 22.0849 40.1109 22.0726 40.1296 22.0668C42.0711 21.4602 43.5296 20.8011 45.2592 20.0195C48.963 18.3219 51.0757 16.1998 51.0757 12.5783C51.0757 8.13616 47.8931 5.33521 43.2563 5.33521Z" fill="#403F41"/>
<path d="M23.0082 19.0575C17.4111 19.0858 16.5057 22.5659 16.2039 25.5084L16.0668 26.8099H14.9418L14.8046 25.5084C14.5029 22.5659 13.5701 19.0858 8.16501 19.0575C7.25962 17.1334 6.87551 15.5773 6.87551 13.8231C6.87551 9.43772 10.36 5.33505 15.5179 5.33505C20.676 5.33505 24.1056 9.40928 24.1056 13.8516C24.1056 15.5773 23.941 17.1334 23.0082 19.0575ZM15.4632 0.0158691C6.9579 0.0158691 -0.0110474 7.20248 -0.0110474 16.0016C-0.0110474 24.8293 6.9579 32.0158 15.4632 32.0158C24.0507 32.0158 30.9922 24.8293 30.9922 16.0016C30.9922 7.2025 24.0507 0.0158691 15.4632 0.0158691Z" fill="#29B24A"/>
</svg>
