<svg width="1000" height="1000" viewBox="0 0 1000 1000" fill="none" xmlns="http://www.w3.org/2000/svg">
<rect width="1000" height="1000" rx="192" fill="#0075FF"/>
<path d="M240.012 369.896C240.92 410.595 254.235 442.051 283.268 467.821C285.047 469.397 286.301 471.984 286.635 474.242C291.926 510.788 296.786 547.376 302.244 583.901C305.863 608.105 309.147 632.427 314.604 656.333C320.898 683.87 333.068 709.576 354.134 731.011C361.383 738.38 369.922 745.142 379.094 750.52C395.467 760.125 412.33 756.781 424.224 742.821C435.187 729.957 440.729 714.889 444.347 699.438C450.51 673.115 455.525 646.579 461.222 620.16C464.196 606.359 468.352 592.867 477.905 581.292C490.768 565.703 509.637 565.628 522.487 581.196C532.912 593.826 536.722 608.702 540.042 623.716C546.419 652.521 552.044 681.485 559.592 710.044C562.482 720.991 568.381 731.831 575.368 741.287C587.824 758.144 606.108 760.338 624.929 748.784C641.851 738.402 654.069 724.282 663.981 708.479C679.136 684.328 687.543 658.143 691.58 630.925C699.223 579.482 706.173 527.964 713.315 476.467C713.924 472.059 715.907 468.768 719.442 465.51C747.387 439.74 760.81 408.604 759.962 372.963C758.875 327.462 739.385 289.883 696.369 263.857C670.382 248.129 641.075 243.061 609.905 245.638C583.19 247.842 558.111 256.169 532.244 261.568C530.703 261.887 529.127 262.186 527.658 262.718C508.944 269.565 490.612 268.01 471.6 262.612C450.832 256.723 429.562 252.016 408.221 248.012C330.094 233.36 260.29 274.219 244.049 343.882C241.72 353.891 240.86 364.178 240 369.886L240.012 369.896Z" fill="white"/>
</svg>
