<svg width="289" height="34" viewBox="0 0 289 34" fill="none" xmlns="http://www.w3.org/2000/svg">
<path d="M0.000766754 8.07269C0.0592995 10.7033 0.918064 12.7364 2.7904 14.4021C2.90516 14.5039 2.98603 14.6712 3.0076 14.8171C3.34879 17.1792 3.66226 19.5441 4.01424 21.9049C4.24761 23.4694 4.45941 25.0414 4.81139 26.5866C5.21728 28.3664 6.0021 30.0279 7.36072 31.4134C7.82823 31.8897 8.37892 32.3268 8.97042 32.6744C10.0264 33.2952 11.1139 33.0791 11.881 32.1767C12.588 31.3453 12.9454 30.3714 13.1788 29.3727C13.5762 27.6713 13.8997 25.9561 14.267 24.2485C14.4588 23.3565 14.7268 22.4845 15.343 21.7363C16.1725 20.7287 17.3894 20.7239 18.2181 21.7301C18.8905 22.5464 19.1362 23.5079 19.3503 24.4784C19.7616 26.3402 20.1243 28.2123 20.6111 30.0582C20.7975 30.7658 21.178 31.4664 21.6285 32.0776C22.4318 33.1672 23.611 33.3089 24.8248 32.5622C25.9162 31.8911 26.7041 30.9784 27.3434 29.957C28.3207 28.396 28.8629 26.7036 29.1233 24.9443C29.6162 21.6193 30.0644 18.2894 30.525 14.9609C30.5643 14.676 30.6922 14.4633 30.9201 14.2527C32.7224 12.5871 33.5881 10.5746 33.5334 8.27091C33.4633 5.32991 32.2064 2.90099 29.4321 1.21885C27.7562 0.202272 25.8661 -0.125346 23.8559 0.0412159C22.133 0.183689 20.5156 0.721919 18.8474 1.07087C18.748 1.09152 18.6463 1.11079 18.5516 1.14521C17.3447 1.58777 16.1625 1.48728 14.9363 1.13832C13.597 0.757709 12.2253 0.453492 10.8489 0.194701C5.81033 -0.752364 1.30855 1.88854 0.261093 6.39123C0.110905 7.03821 0.0554504 7.70308 -3.8147e-06 8.072L0.000766754 8.07269Z" fill="white"/>
<path d="M60.1994 28.9388C57.8558 28.9388 55.8026 28.608 54.0399 27.9464C52.2772 27.2849 50.9051 26.3526 49.9236 25.1498C48.9421 23.9268 48.4112 22.5034 48.3311 20.8796H54.0099C54.1701 22.0624 54.771 22.9746 55.8126 23.6161C56.8542 24.2376 58.3165 24.5483 60.1994 24.5483C61.9621 24.5483 63.3242 24.2977 64.2857 23.7965C65.2672 23.2953 65.758 22.5435 65.758 21.5411C65.758 20.6791 65.3473 20.0476 64.5261 19.6466C63.7048 19.2457 62.3727 19.0452 60.5299 19.0452H56.2934V15.2561H60.4398C61.5415 15.2561 62.4429 15.1459 63.1439 14.9253C63.845 14.7048 64.3658 14.3941 64.7063 13.9931C65.0469 13.5721 65.2171 13.111 65.2171 12.6098C65.2171 12.0084 65.0168 11.4971 64.6162 11.0761C64.2156 10.6551 63.6447 10.3444 62.9036 10.1439C62.1624 9.92338 61.271 9.81312 60.2294 9.81312C58.5268 9.81312 57.1747 10.1239 56.1732 10.7453C55.1917 11.3468 54.6108 12.1988 54.4305 13.3015H48.8119C48.912 11.838 49.4228 10.5148 50.3442 9.33196C51.2857 8.14914 52.6077 7.20689 54.3103 6.50521C56.0129 5.78349 58.0761 5.42262 60.4999 5.42262C62.6231 5.42262 64.466 5.69327 66.0284 6.23456C67.5908 6.77586 68.8026 7.51763 69.664 8.45988C70.5453 9.40213 70.986 10.4947 70.986 11.7377C70.986 12.7602 70.6755 13.7024 70.0546 14.5645C69.4536 15.4265 68.5022 16.1082 67.2002 16.6094C65.9182 17.1106 64.2556 17.3511 62.2125 17.3311V16.7296C64.1555 16.6294 65.818 16.7697 67.2002 17.1506C68.6023 17.5115 69.674 18.0929 70.4151 18.8948C71.1763 19.6967 71.5569 20.7192 71.5569 21.9621C71.5569 23.3254 71.1162 24.5383 70.2348 25.6008C69.3535 26.6433 68.0615 27.4653 66.3589 28.0667C64.6763 28.6481 62.6231 28.9388 60.1994 28.9388Z" fill="white"/>
<path d="M73.0329 33.0286V23.4657H77.5398L79.613 23.5259H95.5676L96.9497 23.4657H103.259V33.0286H97.9713V28.4577H78.3211V33.0286H73.0329ZM77.7802 5.90377H99.3534V26.7736H93.6747V8.27945L96.2286 10.8656H80.8149L83.1585 8.9711C83.2987 9.95345 83.3788 10.9057 83.3989 11.8279C83.4389 12.7301 83.459 13.5921 83.459 14.4141C83.459 16.8199 83.2587 18.8447 82.858 20.4886C82.4775 22.1326 81.8865 23.3855 81.0853 24.2476C80.3041 25.0896 79.3326 25.5106 78.1708 25.5106L75.7972 23.556C76.6184 22.5937 77.2294 21.2705 77.63 19.5865C78.0306 17.8824 78.2309 15.7774 78.2309 13.2714C78.2309 12.1286 78.1909 10.9458 78.1107 9.7229C78.0306 8.47993 77.9204 7.20689 77.7802 5.90377Z" fill="white"/>
<path d="M117.9 28.9388C115.255 28.9388 112.932 28.4476 110.929 27.4653C108.946 26.483 107.403 25.1097 106.302 23.3455C105.2 21.5812 104.649 19.5263 104.649 17.1807C104.649 14.8351 105.2 12.7802 106.302 11.016C107.403 9.25177 108.946 7.87849 110.929 6.89614C112.932 5.9138 115.255 5.42262 117.9 5.42262C120.544 5.42262 122.857 5.9138 124.84 6.89614C126.843 7.87849 128.396 9.25177 129.497 11.016C130.619 12.7802 131.18 14.8351 131.18 17.1807C131.18 19.5263 130.619 21.5812 129.497 23.3455C128.396 25.1097 126.843 26.483 124.84 27.4653C122.857 28.4476 120.544 28.9388 117.9 28.9388ZM117.9 23.8567C119.462 23.8567 120.804 23.5961 121.926 23.0748C123.047 22.5335 123.909 21.7617 124.51 20.7593C125.131 19.7569 125.441 18.564 125.441 17.1807C125.441 15.7974 125.131 14.6046 124.51 13.6022C123.909 12.5998 123.047 11.838 121.926 11.3167C120.804 10.7754 119.462 10.5048 117.9 10.5048C116.357 10.5048 115.025 10.7754 113.903 11.3167C112.782 11.838 111.91 12.5998 111.289 13.6022C110.668 14.6046 110.358 15.7974 110.358 17.1807C110.358 18.564 110.668 19.7569 111.289 20.7593C111.91 21.7617 112.782 22.5335 113.903 23.0748C115.025 23.5961 116.357 23.8567 117.9 23.8567Z" fill="white"/>
<path d="M147.012 5.90377C148.855 5.90377 150.438 6.22454 151.76 6.86607C153.102 7.48756 154.123 8.36967 154.825 9.5124C155.546 10.6551 155.906 11.9883 155.906 13.512C155.906 15.0356 155.546 16.3688 154.825 17.5115C154.123 18.6542 153.102 19.5464 151.76 20.1879C150.438 20.8094 148.855 21.1201 147.012 21.1201H137.157V16.5191H146.712C147.794 16.5191 148.645 16.2585 149.266 15.7373C149.887 15.196 150.197 14.4542 150.197 13.512C150.197 12.5697 149.887 11.838 149.266 11.3167C148.645 10.7754 147.794 10.5048 146.712 10.5048H137.668L140.222 7.85844V28.4577H134.543V5.90377H147.012Z" fill="white"/>
<path d="M170.95 28.9388C168.306 28.9388 165.982 28.4476 163.979 27.4653C161.996 26.483 160.454 25.1097 159.352 23.3455C158.25 21.5812 157.7 19.5263 157.7 17.1807C157.7 14.8351 158.25 12.7802 159.352 11.016C160.454 9.25177 161.996 7.87849 163.979 6.89614C165.982 5.9138 168.306 5.42262 170.95 5.42262C173.594 5.42262 175.908 5.9138 177.891 6.89614C179.894 7.87849 181.446 9.25177 182.548 11.016C183.67 12.7802 184.23 14.8351 184.23 17.1807C184.23 19.5263 183.67 21.5812 182.548 23.3455C181.446 25.1097 179.894 26.483 177.891 27.4653C175.908 28.4476 173.594 28.9388 170.95 28.9388ZM170.95 23.8567C172.512 23.8567 173.854 23.5961 174.976 23.0748C176.098 22.5335 176.959 21.7617 177.56 20.7593C178.181 19.7569 178.492 18.564 178.492 17.1807C178.492 15.7974 178.181 14.6046 177.56 13.6022C176.959 12.5998 176.098 11.838 174.976 11.3167C173.854 10.7754 172.512 10.5048 170.95 10.5048C169.408 10.5048 168.076 10.7754 166.954 11.3167C165.832 11.838 164.961 12.5998 164.34 13.6022C163.719 14.6046 163.408 15.7974 163.408 17.1807C163.408 18.564 163.719 19.7569 164.34 20.7593C164.961 21.7617 165.832 22.5335 166.954 23.0748C168.076 23.5961 169.408 23.8567 170.95 23.8567Z" fill="white"/>
<path d="M202.232 17.3912L202.713 16.2786C204.475 16.3187 205.918 16.5893 207.039 17.0905C208.181 17.5917 209.022 18.2834 209.563 19.1655C210.124 20.0275 210.404 21.0299 210.404 22.1726C210.404 23.3755 210.124 24.4581 209.563 25.4204C209.002 26.3627 208.161 27.1044 207.039 27.6457C205.938 28.187 204.555 28.4577 202.893 28.4577H186.668L188.411 16.88L186.668 5.90377H202.322C204.405 5.90377 206.018 6.39495 207.159 7.37729C208.321 8.33959 208.902 9.67278 208.902 11.3769C208.902 12.3191 208.682 13.2213 208.241 14.0833C207.8 14.9454 207.099 15.6771 206.138 16.2786C205.176 16.86 203.874 17.2308 202.232 17.3912ZM192.257 27.0744L190.093 24.398H201.541C202.522 24.398 203.284 24.1674 203.824 23.7063C204.385 23.2252 204.666 22.5536 204.666 21.6915C204.666 20.8294 204.355 20.1478 203.734 19.6466C203.133 19.1254 202.232 18.8647 201.03 18.8647H191.656V14.8953H200.309C201.13 14.8953 201.811 14.6647 202.352 14.2036C202.893 13.7225 203.163 13.0709 203.163 12.2489C203.163 11.5874 202.933 11.0461 202.472 10.6251C202.012 10.184 201.341 9.96347 200.459 9.96347H190.123L192.257 7.28708L193.849 16.88L192.257 27.0744Z" fill="white"/>
<path d="M213.62 28.4577V5.90377H219.299V26.503L216.745 23.977H225.699C226.8 23.977 227.662 23.6963 228.283 23.135C228.924 22.5736 229.244 21.8118 229.244 20.8495C229.244 19.8671 228.924 19.0953 228.283 18.534C227.662 17.9726 226.8 17.6919 225.699 17.6919H216.234V13.2112H226.029C227.892 13.2112 229.485 13.532 230.807 14.1735C232.149 14.795 233.18 15.6771 233.901 16.8199C234.622 17.9626 234.983 19.3058 234.983 20.8495C234.983 22.3731 234.622 23.7063 233.901 24.849C233.18 25.9918 232.149 26.8839 230.807 27.5254C229.485 28.1469 227.892 28.4577 226.029 28.4577H213.62Z" fill="white"/>
<path d="M256.699 15.0757V19.2858H240.383V15.0757H256.699ZM244.229 17.1807L242.727 26.503L240.353 23.8266H257.66V28.4577H237.048L238.791 17.1807L237.048 5.90377H257.51V10.5348H240.353L242.727 7.85844L244.229 17.1807Z" fill="white"/>
<path d="M282.3 5.90377V24.0672H289V28.4577H268.869V24.0672H276.681V10.7453L269.71 11.9783V7.5878L278.123 5.90377H282.3Z" fill="white"/>
</svg>
