<svg width="45" height="48" viewBox="0 0 45 48" fill="none" xmlns="http://www.w3.org/2000/svg">
<rect width="44.2558" height="47.8889" rx="12" fill="#0D81ED"/>
<path d="M10.0005 17.8388C10.0429 19.7415 10.664 21.212 12.0182 22.4167C12.1012 22.4904 12.1597 22.6114 12.1753 22.7169C12.4221 24.4254 12.6488 26.1359 12.9034 27.8434C13.0722 28.9749 13.2254 30.1119 13.4799 31.2295C13.7735 32.5169 14.3412 33.7186 15.3238 34.7207C15.662 35.0652 16.0603 35.3813 16.4881 35.6327C17.2518 36.0817 18.0384 35.9254 18.5932 35.2728C19.1046 34.6714 19.3631 33.967 19.5319 33.2447C19.8193 32.0141 20.0533 30.7735 20.319 29.5384C20.4577 28.8933 20.6516 28.2625 21.0972 27.7214C21.6972 26.9926 22.5774 26.9891 23.1768 27.7169C23.6631 28.3073 23.8408 29.0028 23.9956 29.7047C24.2931 31.0513 24.5555 32.4054 24.9076 33.7405C25.0424 34.2522 25.3176 34.759 25.6434 35.2011C26.2245 35.9891 27.0773 36.0917 27.9552 35.5515C28.7446 35.0662 29.3145 34.4061 29.7768 33.6673C30.4838 32.5383 30.8759 31.3141 31.0642 30.0417C31.4207 27.6368 31.745 25.2284 32.0781 22.8209C32.1065 22.6148 32.199 22.461 32.3639 22.3087C33.6674 21.104 34.2935 19.6484 34.254 17.9822C34.2033 15.855 33.2942 14.0982 31.2876 12.8816C30.0754 12.1463 28.7084 11.9093 27.2545 12.0298C26.0083 12.1329 24.8385 12.5221 23.6319 12.7745C23.56 12.7895 23.4865 12.8034 23.418 12.8283C22.545 13.1484 21.6899 13.0757 20.8031 12.8233C19.8344 12.548 18.8422 12.328 17.8468 12.1408C14.2024 11.4558 10.9464 13.3659 10.1888 16.6226C10.0802 17.0906 10.0401 17.5715 9.99996 17.8383L10.0005 17.8388Z" fill="white"/>
</svg>
