<svg width="24" height="25" viewBox="0 0 24 25" fill="none" xmlns="http://www.w3.org/2000/svg">
<path d="M0.3 10C0.283333 10 0.266667 9.99167 0.25 9.975C0.233333 9.95833 0.233333 9.94167 0.25 9.925C0.266667 9.90833 0.283333 9.9 0.3 9.9L21.4 2.525C21.4167 2.50833 21.4333 2.5 21.45 2.5C21.4667 2.5 21.475 2.51667 21.475 2.55C21.475 2.56667 21.475 2.58333 21.475 2.6L13.7 24.15C13.7 24.1667 13.6917 24.1833 13.675 24.2C13.6583 24.2167 13.6417 24.2167 13.625 24.2C13.6083 24.2 13.5917 24.1917 13.575 24.175L8.8 14.725C8.83333 14.725 8.86667 14.75 8.9 14.8C8.96667 14.9 9.01667 14.9917 9.05 15.075L0.3 10Z" fill="white"/>
</svg>
