<svg width="22" height="23" viewBox="0 0 22 23" fill="none" xmlns="http://www.w3.org/2000/svg">
<path d="M0.3 8C0.283333 8 0.266667 7.99167 0.25 7.975C0.233333 7.95833 0.233333 7.94167 0.25 7.925C0.266667 7.90833 0.283333 7.9 0.3 7.9L21.4 0.524999C21.4167 0.508332 21.4333 0.499999 21.45 0.499999C21.4667 0.499999 21.475 0.516665 21.475 0.549998C21.475 0.566666 21.475 0.583333 21.475 0.599999L13.7 22.15C13.7 22.1667 13.6917 22.1833 13.675 22.2C13.6583 22.2167 13.6417 22.2167 13.625 22.2C13.6083 22.2 13.5917 22.1917 13.575 22.175L8.8 12.725C8.83333 12.725 8.86667 12.75 8.9 12.8C8.96667 12.9 9.01667 12.9917 9.05 13.075L0.3 8Z" fill="#0D81ED"/>
</svg>
