<svg width="24" height="23" viewBox="0 0 24 23" fill="none" xmlns="http://www.w3.org/2000/svg">
<path d="M5 22.325C4.96667 22.3417 4.93333 22.35 4.9 22.35C4.88333 22.3333 4.86667 22.3167 4.85 22.3C4.83333 22.2667 4.825 22.2333 4.825 22.2L6.225 14.15C6.275 14.2833 6.31667 14.3833 6.35 14.45C6.38333 14.5167 6.41667 14.5833 6.45 14.65C6.45 14.6667 6.45 14.675 6.45 14.675C6.46667 14.675 6.475 14.6833 6.475 14.7L0.525 8.875C0.491667 8.84167 0.475 8.81667 0.475 8.8C0.475 8.76667 0.483333 8.74167 0.5 8.725C0.516667 8.69167 0.541667 8.66667 0.575 8.65L8.625 7.475C8.40833 7.675 8.26667 7.81667 8.2 7.9L11.9 0.499998C11.9167 0.483332 11.9333 0.466665 11.95 0.449999C11.9833 0.433332 12.0167 0.433332 12.05 0.449999C12.0833 0.466665 12.1 0.483332 12.1 0.499998L15.8 7.9C15.7333 7.81667 15.5917 7.675 15.375 7.475L23.425 8.65C23.4583 8.66667 23.4833 8.69167 23.5 8.725C23.5167 8.74167 23.525 8.76667 23.525 8.8C23.525 8.81667 23.5167 8.84167 23.5 8.875L17.525 14.7C17.5417 14.6667 17.575 14.6083 17.625 14.525C17.675 14.425 17.7333 14.3083 17.8 14.175L19.175 22.2C19.175 22.2333 19.1667 22.2667 19.15 22.3C19.1333 22.3167 19.1083 22.3333 19.075 22.35C19.0583 22.35 19.0333 22.3417 19 22.325L11.625 18.45C11.5917 18.4167 11.6417 18.4 11.775 18.4C11.925 18.4 12.075 18.4 12.225 18.4C12.375 18.4 12.4333 18.4167 12.4 18.45L5 22.325Z" fill="#FF9900"/>
</svg>
