<svg width="64" height="64" viewBox="0 0 64 64" fill="none" xmlns="http://www.w3.org/2000/svg">
<rect width="64" height="64" rx="32" fill="white"/>
<path d="M37.1667 40.1667C37.6778 40.6778 37.8333 41.2222 37.6333 41.8C37.4333 42.3556 37.0333 42.7333 36.4333 42.9333C35.8333 43.1111 35.3 42.9667 34.8333 42.5L25.4667 33.1667C25.0889 32.7889 24.9 32.4 24.9 32C24.9 31.6 25.0889 31.2111 25.4667 30.8333L34.8333 21.5C35.3 21.0333 35.8222 20.9 36.4 21.1C37 21.2778 37.4 21.6556 37.6 22.2333C37.8222 22.7889 37.6778 23.3222 37.1667 23.8333L29.0333 32L37.1667 40.1667Z" fill="#0E1C25"/>
</svg>
