<svg width="34" height="34" viewBox="0 0 34 34" fill="none" xmlns="http://www.w3.org/2000/svg">
<path d="M0.000766539 8.07269C0.0593011 10.7033 0.918066 12.7364 2.7904 14.4021C2.90516 14.5039 2.98603 14.6712 3.0076 14.8171C3.34879 17.1792 3.66226 19.5441 4.01424 21.9049C4.24761 23.4694 4.45941 25.0414 4.81139 26.5866C5.21728 28.3664 6.0021 30.0279 7.36072 31.4134C7.82823 31.8897 8.37892 32.3268 8.97042 32.6744C10.0264 33.2952 11.1139 33.0791 11.881 32.1767C12.588 31.3453 12.9454 30.3714 13.1788 29.3727C13.5762 27.6713 13.8997 25.9561 14.267 24.2485C14.4588 23.3565 14.7268 22.4845 15.343 21.7363C16.1725 20.7287 17.3894 20.7238 18.2181 21.7301C18.8905 22.5464 19.1362 23.5079 19.3503 24.4784C19.7616 26.3402 20.1243 28.2123 20.6111 30.0582C20.7975 30.7658 21.178 31.4664 21.6285 32.0776C22.4318 33.1672 23.611 33.3089 24.8248 32.5622C25.9162 31.8911 26.7041 30.9784 27.3434 29.957C28.3207 28.396 28.8629 26.7036 29.1233 24.9443C29.6162 21.6193 30.0644 18.2894 30.525 14.9609C30.5643 14.676 30.6922 14.4633 30.9201 14.2527C32.7224 12.5871 33.5881 10.5746 33.5334 8.27091C33.4633 5.32991 32.2064 2.90099 29.4321 1.21885C27.7562 0.202272 25.8661 -0.125346 23.8559 0.0412159C22.133 0.183689 20.5156 0.721919 18.8474 1.07087C18.748 1.09152 18.6463 1.11079 18.5516 1.14521C17.3447 1.58777 16.1625 1.48728 14.9363 1.13832C13.597 0.757709 12.2253 0.453492 10.8489 0.194701C5.81033 -0.752364 1.30855 1.88854 0.261092 6.39123C0.110904 7.03821 0.0554494 7.70308 -4.40504e-06 8.072L0.000766539 8.07269Z" fill="white"/>
</svg>
