<svg width="120" height="32" viewBox="0 0 120 32" fill="none" xmlns="http://www.w3.org/2000/svg">
<g clip-path="url(#clip0_318_300)">
<path d="M13.155 0C5.88949 0 0 5.73056 0 12.8C0 16.3334 1.47139 19.5328 3.85112 21.849C6.23152 24.1664 11.8395 27.52 12.1684 31.04C12.2177 31.5677 12.6104 32 13.155 32C13.6996 32 14.0923 31.5677 14.1416 31.04C14.4705 27.52 20.0785 24.1664 22.4589 21.849C24.8386 19.5328 26.31 16.3334 26.31 12.8C26.31 5.73056 20.4205 0 13.155 0Z" fill="url(#paint0_linear_318_300)"/>
<path d="M13.155 17.2806C15.6978 17.2806 17.7592 15.2748 17.7592 12.8006C17.7592 10.3263 15.6978 8.32056 13.155 8.32056C10.6121 8.32056 8.55072 10.3263 8.55072 12.8006C8.55072 15.2748 10.6121 17.2806 13.155 17.2806Z" fill="white"/>
<path d="M49.2556 23.6825H52.7296V4.2666H47.6765C42.5945 4.2666 39.9244 6.80883 39.9244 10.5523C39.9244 13.5415 41.3886 15.3015 44.0013 17.1174L39.465 23.6825H43.2261L48.2793 16.3351L46.5279 15.1898C44.4033 13.793 43.3697 12.7034 43.3697 10.3568C43.3697 8.28947 44.8626 6.89265 47.7051 6.89265H49.2556V23.6825ZM94.8777 22.7326V20.0228C93.8155 20.7212 92.0353 21.3358 90.37 21.3358C87.8722 21.3358 86.9247 20.1905 86.7812 17.8438H95.0213V16.0838C95.0213 11.1949 92.8106 9.35105 89.3939 9.35105C85.2307 9.35105 83.2497 12.452 83.2497 16.6983C83.2497 21.5873 85.7189 23.9618 90.0829 23.9618C92.265 23.9618 93.8729 23.4031 94.8777 22.7326ZM116.239 23.9618C117.818 23.9618 118.938 23.6825 119.77 23.0958V20.386C118.909 20.9726 117.875 21.3358 116.44 21.3358C114 21.3358 112.995 19.4919 112.995 16.5866C112.995 13.5415 114.229 11.9771 116.469 11.9771C117.789 11.9771 119.081 12.4241 119.77 12.8431V10.0215C119.053 9.63043 117.789 9.35105 116.095 9.35105C111.731 9.35105 109.463 12.3961 109.463 16.6705C109.463 21.3638 111.674 23.9618 116.239 23.9618ZM63.5825 9.63043V15.1898H59.0174V9.63043H55.6007V23.6825H59.0174V17.8158H63.5825V23.6825H66.999V9.63043H63.5825ZM82.417 21.0564H80.8953V9.63043H70.9325V10.8317C70.9325 14.2679 70.7028 18.7098 69.497 21.0564H68.4347V26.8951H71.5929V23.6825H79.2588V26.8951H82.417V21.0564ZM105.788 23.6825H109.664L104.18 16.1116L109.004 9.63043H105.558L100.735 16.1116V9.63043H97.3182V23.6825H100.735V16.7822L105.788 23.6825ZM89.3365 11.9771C91.0304 11.9771 91.5472 13.346 91.5472 15.106V15.3853H86.7812C86.8673 13.1504 87.6999 11.9771 89.3365 11.9771ZM77.4788 21.0564H72.6552C73.6027 18.9332 73.8612 15.106 73.8612 12.6755V12.2565H77.4788V21.0564Z" fill="#0E1C25"/>
</g>
<defs>
<linearGradient id="paint0_linear_318_300" x1="13.155" y1="0" x2="13.155" y2="32" gradientUnits="userSpaceOnUse">
<stop stop-color="#FF6122"/>
<stop offset="1" stop-color="#F22411"/>
</linearGradient>
<clipPath id="clip0_318_300">
<rect width="120" height="32" fill="white"/>
</clipPath>
</defs>
</svg>
